<?xml version="1.0" encoding="utf-8"?>
<!-- Generator: Adobe Illustrator 25.2.1, SVG Export Plug-In . SVG Version: 6.00 Build 0)  -->
<svg version="1.1" id="Camada_1" xmlns="http://www.w3.org/2000/svg" xmlns:xlink="http://www.w3.org/1999/xlink" x="0px" y="0px"
	 viewBox="0 0 500 500" enable-background="new 0 0 500 500" xml:space="preserve">
<ellipse fill="#030405" cx="325.34" cy="330.82" rx="23.64" ry="25.99"/>
<path fill="#808081" stroke="#626260" stroke-miterlimit="10" d="M191.95,298.1l-5.64,31.82l5.64,10.13l22.14-40.83
	C214.09,299.22,210.36,289.81,191.95,298.1z"/>
<ellipse fill="#030405" cx="173.73" cy="350.95" rx="25.1" ry="28.46"/>
<ellipse fill="#808081" stroke="#616160" stroke-miterlimit="10" cx="168.83" cy="351.69" rx="10.76" ry="12.2"/>
<path fill="#808081" stroke="#626260" stroke-miterlimit="10" d="M331.05,329.6c0,5.77-4.13,10.45-9.21,10.45
	c-5.1,0-9.22-4.68-9.22-10.45c0-0.87,0.09-1.71,0.27-2.52l-19.25-26.8c0,0,8.29-7.22,14.12-5.59l10.09,25.49
	c1.21-0.65,2.57-1.03,4-1.03C326.93,319.15,331.05,323.83,331.05,329.6z"/>
<path fill="#EC6716" stroke="#EC6716" stroke-miterlimit="10" d="M483.16,247.13l-146.78,28.23c0,0-14.79,15.29-38.99,24.2
	c-24.2,8.91-45.71,11.76-86.88,6.89c-41.17-4.87-193.26-41.25-193.26-41.25l34.45-20.93c0,0,3.14-2.86,11.82-3.53
	c0,0-10.76-86.94-4.48-93.66c6.27-6.72,13.16-10.87,13.16-10.87s6.05-3.87,11.6-2.18c5.55,1.68,16.81,38.99,16.81,38.99l9.91,35.96
	c0,0,28.23-15.8,55.62-24.87c0,0,13.44-26.89,15.63-29.58c2.18-2.69,11.09-19.17,24.54-20.92c13.44-1.76,25.88-0.92,41.51,4.96
	c0,0,6.72,6.72,14.96,43.52c0,0,66.04,1.18,72.26,8.07c6.22,6.89,34.11,30.25,22.01,54.11c-1.25,2.46-2.46,4.76-3.63,6.88
	c0.8-0.12,40.91-6.1,71.86-11.42c31.26-5.38,36.63-4.37,36.63-4.37C488.8,237.38,483.16,247.13,483.16,247.13z"/>
<path fill="#EE7628" d="M482.66,247.07L335.88,275.3l4.81-5.88l142.15-26.16C483.64,245.38,482.66,247.07,482.66,247.07z"/>
<path fill="#F08136" d="M110.76,208.89l-3.77,5.64l-7.05-26.18l-9.53-35.44c-4.26-24.42-17.96-16.79-17.96-16.79
	s6.05-3.87,11.6-2.18c5.55,1.68,16.81,38.99,16.81,38.99L110.76,208.89z"/>
<path fill="#FAFAFA" stroke="#BFBEBE" stroke-miterlimit="10" d="M357.05,244.27c-12.1,23.86-20.67,31.09-20.67,31.09
	s-14.79,15.29-38.99,24.2c-24.2,8.91-45.71,11.76-86.88,6.89c-41.17-4.87-193.26-41.25-193.26-41.25l21.64-13.15l128.26-20.72
	l2.14,3.34l5.59,8.76l177.64-33.17C358.98,220.05,363.22,232.1,357.05,244.27z"/>
<path fill="#999998" d="M203.78,143.05c0,0-9.41-10.76-28.68,33.16c0,0,6.27,4.93,19.72,6.27L203.78,143.05z"/>
<path fill="#808081" d="M203.78,143.38l-0.33,1.45c-9.49-2.28-23.54,34.35-23.54,34.35c-3.25-1.4-4.82-2.63-4.82-2.63
	C194.37,132.62,203.78,143.38,203.78,143.38z"/>
<path fill="#FFFFFF" stroke="#FFFFFF" stroke-miterlimit="10" d="M254.42,175.31c0,0-2.88-1.38-7.38-1.76
	c-3.11-0.25-6.99-0.02-11.23,1.5c-1.45,0.51-2.95,1.19-4.46,2.04c0,0-2.02-1.21-5.87-2.07c-2.91-0.64-6.86-1.08-11.79-0.63
	c-3.6,0.33-7.74,1.14-12.36,2.7c0,0,3.35-24.45,5.15-25.54c0,0,8.51-6.5,21.96-2.46c0,0,6.95-6.05,17.7-2.46
	C246.13,146.63,251.96,160.3,254.42,175.31z"/>
<path fill="#3EC0F0" d="M227.87,169.31c0,2.24-0.91,4.27-2.4,5.72c-2.91-0.64-6.86-1.08-11.79-0.63c-1.14-1.39-1.83-3.16-1.83-5.1
	c0-4.43,3.59-8.01,8.01-8.01S227.87,164.89,227.87,169.31z"/>
<circle fill="#010202" stroke="#010202" stroke-miterlimit="10" cx="219.56" cy="168.91" r="4.39"/>
<circle fill="#FFFFFF" stroke="#FFFFFF" stroke-miterlimit="10" cx="222.6" cy="166.3" r="2.13"/>
<path fill="#3EC0F0" d="M248.68,168.7c0,1.82-0.62,3.51-1.64,4.85c-3.11-0.25-6.99-0.02-11.23,1.5c-1.91-1.47-3.15-3.77-3.15-6.36
	c0-4.43,3.59-8.01,8.01-8.01S248.68,164.28,248.68,168.7z"/>
<circle fill="#010202" stroke="#010202" stroke-miterlimit="10" cx="240.37" cy="168.3" r="4.39"/>
<circle fill="#FFFFFF" stroke="#FFFFFF" stroke-miterlimit="10" cx="243.41" cy="165.69" r="2.13"/>
<path fill="#EC6716" d="M16.35,265.2l11.99,2.76l42.01-10.08l78.31,20.84c0,0,83.93,21.51,91.71,11.76
	c7.78-9.75-6.34-22.18-6.34-22.18s-13.44-12.1-30.25-5.38l-16.81,4.37l-116.96-24.2c0,0-9.41-4.71-20.17,2.35
	S16.35,265.2,16.35,265.2z"/>
<path fill="#F08136" d="M240.37,290.24c0,0-1.41-23.55-24.26-25.04c0,0-10.64-2.39-29.91,4.89L62.4,244.78
	c0,0-32.39,19.9-44.98,20.43l-1.06-0.24c0,0,22.74-12.7,33.5-19.76c10.76-7.06,20.17-2.35,20.17-2.35l116.96,24.2l16.81-4.37
	c16.81-6.72,30.25,5.38,30.25,5.38S248.15,280.49,240.37,290.24z"/>
<polygon fill="#91D3EE" points="67.1,241.64 81.67,245 166.81,231.11 175.1,243.65 318.95,216.09 325,208.48 178.91,232.23 
	169.95,217.66 "/>
<circle fill="#FFFFFF" cx="136.34" cy="229.06" r="23.75"/>
<ellipse opacity="0.8" fill="#F2F2F1" cx="350.68" cy="212.64" rx="73.05" ry="87.64"/>
<path fill="#B3B3B3" d="M372.57,218.11c0,0.02-0.01,0.03-0.01,0.05c-0.29,1.47-0.7,3.1-1.26,4.88c-0.01,0.02-0.01,0.03-0.02,0.05
	c-0.17,0.47-0.35,0.92-0.56,1.38c-0.02,0.05-0.04,0.1-0.07,0.15c-4.29,8.59-20.07,13.1-20.07,13.1s-13.26,2.64-22.57-3.76
	c-0.02-0.02-0.04-0.03-0.06-0.05c-5.66-4.76-9.22-11.77-9.22-19.58c0-14.4,12.11-26.06,27.06-26.06c0.95,0,1.89,0.05,2.81,0.14
	c0,0,0.01,0,0.03,0c0.63-0.02,11.9-0.2,18.6,8.13c0,0,5.62,6.08,5.62,11.93C372.85,208.48,373.82,211.77,372.57,218.11z"/>
<path fill="#BCBCBB" d="M370.17,210.46c0,0.01,0,0.01,0,0.02c-0.13,0.64-0.31,1.35-0.55,2.13c0,0.01,0,0.01-0.01,0.02
	c-0.07,0.2-0.16,0.4-0.24,0.6c-0.01,0.02-0.02,0.04-0.03,0.07c-1.88,3.75-8.77,5.72-8.77,5.72s-5.79,1.15-9.86-1.64
	c-0.01-0.01-0.02-0.01-0.02-0.02c-2.47-2.08-4.03-5.14-4.03-8.55c0-6.29,5.29-11.39,11.82-11.39c0.42,0,0.82,0.02,1.23,0.06
	c0,0,0,0,0.01,0c0.28-0.01,5.2-0.09,8.13,3.55c0,0,2.46,2.66,2.46,5.21C370.29,206.25,370.72,207.69,370.17,210.46z"/>
<path fill="#C9C7C6" d="M369.42,207.68c0,0,0,0.01,0,0.01c-0.07,0.36-0.17,0.76-0.31,1.2c0,0,0,0.01,0,0.01
	c-0.04,0.11-0.09,0.23-0.14,0.34c0,0.01-0.01,0.03-0.02,0.04c-1.06,2.11-4.94,3.22-4.94,3.22s-3.26,0.65-5.55-0.93
	c0,0-0.01-0.01-0.01-0.01c-1.39-1.17-2.27-2.9-2.27-4.82c0-3.54,2.98-6.41,6.66-6.41c0.23,0,0.46,0.01,0.69,0.03c0,0,0,0,0.01,0
	c0.16,0,2.93-0.05,4.58,2c0,0,1.38,1.5,1.38,2.94C369.49,205.31,369.73,206.12,369.42,207.68z"/>
<path fill="#EC6716" d="M327.69,233.91c0.02,0.02,0.04,0.03,0.06,0.05C327.73,233.95,327.71,233.93,327.69,233.91L327.69,233.91z"/>
</svg>
