<?xml version="1.0" encoding="utf-8"?>
<!-- Generator: Adobe Illustrator 25.2.1, SVG Export Plug-In . SVG Version: 6.00 Build 0)  -->
<svg version="1.1" id="Camada_1" xmlns="http://www.w3.org/2000/svg" xmlns:xlink="http://www.w3.org/1999/xlink" x="0px" y="0px"
	 viewBox="0 0 500 500" enable-background="new 0 0 500 500" xml:space="preserve">
<path fill="#70BBE9" stroke="#50849E" stroke-miterlimit="10" d="M404.88,271.14c0,0,9.18-2.34,2.52-11.88
	c-6.66-9.54-24.48-1.98-24.48-1.98s-8.28,0-7.74-17.28c0.54-17.28-15.3-18.72-15.3-18.72s-19.8-3.06-8.1,9.18
	c11.7,12.24,4.14,25.56,4.14,25.56c-13.14,18.36-1.8,26.64-1.8,26.64c-1.26,8.1-5.76,15.12-5.76,15.12
	c-7.38-1.8-9.18,4.68-9.18,4.68c-9.9,39.06-33.3,74.52-33.3,74.52S294,366.36,288.6,366.54c-5.4,0.18-33.12-26.64-33.12-26.64
	c-21.42-35.1-38.34-28.98-38.34-28.98c-8.66-6.19-7.28-17.12-7.23-17.51c7.15,0.46,14.58,0.61,21.81,0.23
	c31.68-1.68,32.4-18.72,32.4-18.72c61.68-48,5.52-70.8,5.52-70.8s-13.2-22.56-30.72-37.2c-17.52-14.64-30.24,5.04-30.72,3.6
	c-0.48-1.44-3.6-2.4-3.6-2.4c-15.6-18-12.48-77.28-12.48-77.28s4.43-8.47,45.6,3.36c41.17,11.83,49.92,4.8,49.92,4.8
	s18.48-3.6,21.84-16.8c3.36-13.2-9.84-5.04-9.84-5.04s-37.2,14.4-60,6.96S189,83.88,189,83.88c-4.56-10.32-7.92-4.8-7.92-4.8
	c-16.8,34.56,19.2,90.96,19.2,90.96c-0.48,4.08,0,7.44,0,7.44c-34.32-15.12-47.76,7.92-47.76,7.92
	c-21.36-17.52-26.4-48.24-26.4-48.24c-2.64-34.08-8.64-39.12-8.64-39.12c5.76-8.88,19.2-17.28,19.2-17.28s16.08-8.4,43.92-14.16
	c27.84-5.76,35.52-24,35.52-24s3.36-7.2,4.32-15.12s-6.96-3.6-6.96-3.6s-21.6,27.84-53.04,35.52s-48,33.12-48,33.12
	c-5.04-5.52-7.2-0.24-7.2-0.24c-10.56,39.6,43.44,97.92,43.44,97.92c-10.56,8.88-4.08,36.72-4.08,36.72
	c-30.24,35.04,19.92,59.76,19.92,59.76s10.6,2.58,25.39,4.65c0.23,0.59,8.47,22.52-7.87,25.89c-16.56,3.42-17.1,16.02-17.1,16.02
	s-5.4,30.06-18.9,45.72c-13.5,15.66-21.96,42.48-21.96,42.48s-4.68,21.78,3.6,25.02c8.28,3.24,16.02-6.3,16.02-6.3
	s44.64,9.54,72.54,9.77c27.9,0.23,28.08-12.47,28.08-12.47c4.14-0.18,8.64,1.8,8.64,1.8c1.98,5.4,10.8,8.64,10.8,8.64
	s18.9,4.68,24.66-0.18s18-4.32,18-4.32c7.92,5.4,15.3-0.18,15.3-0.18c4.14,5.94,13.5,3.42,13.5,3.42c14.58,7.38,13.5-5.4,13.5-5.4
	c6.12-4.5-0.9-9-0.9-9c-8.46-14.04-28.26-15.12-28.26-15.12l-31.5,0.72c-22.5-1.62-32.76,9.72-32.76,9.72H250
	c3.7-10.08-27.64-7.56-27.64-7.56c19.98-17.82,21.78-67.32,21.78-67.32c7.74-2.88,37.62,34.74,37.62,34.74s23.4,19.26,32.94,16.02
	c9.54-3.24,2.34-18,2.34-18l20.16-18.9c37.08-29.16,21.78-59.04,22.14-59.22c0.36-0.18,1.44-0.9,1.44-0.9
	c21.42,15.66,34.38,0.72,34.38,0.72c22.86-2.88,9.54-18.54,9.54-18.54C417.3,278.34,404.88,271.14,404.88,271.14z M188.2,424.44
	l-39.76,1.92c0,0,3.36-10.08,5.32-25.92c1.62-13.1,18.27-31.13,23.97-36.97c-1.31,2.41-1.58,7.55,6.23,17.77
	C196.44,397.56,188.2,424.44,188.2,424.44z"/>
<path fill="none" stroke="#000000" stroke-miterlimit="10" d="M189.91,291.33C189.91,291.32,189.91,291.32,189.91,291.33"/>
<path fill="none" stroke="#000000" stroke-miterlimit="10" d="M209.91,293.41c0-0.01,0-0.01,0-0.01"/>
<path fill="none" stroke="#FFFFFF" stroke-miterlimit="10" d="M222.64,216.92c0,8.69-3.21,16.62-8.52,22.68h-0.01
	c0,0-4.53-0.25-10.88,0.05c-6.28,0.29-14.33,1.12-21.5,3.25c-8.22-1.08-15.44-4.68-20.48-9.83c-1.12-2.9-1.77-6.01-1.86-9.25v-0.23
	c-0.01-0.19-0.01-0.37-0.01-0.56c0-2.34,0.29-4.62,0.84-6.81c0.01-0.04,0.02-0.09,0.03-0.13c3.51-16.63,17.11-29.02,33.35-29.02
	c8.11,0,15.56,3.08,21.42,8.23C219.79,201.21,222.64,208.72,222.64,216.92z"/>
<path fill="#6FBBE9" stroke="#51849E" stroke-miterlimit="10" d="M222.64,216.92c0,8.69-3.21,16.62-8.52,22.68h-0.01
	c0,0-4.53-0.25-10.88,0.05c-6.28,0.29-14.33,1.12-21.5,3.25c-15.57-2.04-27.55-13.15-27.96-26.66v-0.21
	c-0.01-0.17-0.01-0.34-0.01-0.51c0-2.15,0.29-4.25,0.85-6.26c0.01-0.04,0.02-0.08,0.03-0.12c3.53-15.28,17.21-26.66,33.56-26.66
	C207.23,182.48,222.64,197.89,222.64,216.92z"/>
<path fill="#FFFFFF" stroke="#FFFFFF" stroke-miterlimit="10" d="M222.64,216.92c0,8.69-3.21,16.62-8.52,22.68h-0.01
	c0,0-4.53-0.25-10.88,0.05c-6.28,0.29-14.33,1.12-21.5,3.25c-8.22-1.08-15.44-4.68-20.48-9.83c-1.12-2.9-1.77-6.01-1.86-9.25v-0.23
	c-0.01-0.19-0.01-0.37-0.01-0.56c0-2.34,0.29-4.62,0.84-6.81c0.01-0.04,0.02-0.09,0.03-0.13c3.51-16.63,17.11-29.02,33.35-29.02
	c8.11,0,15.56,3.08,21.42,8.23C219.79,201.21,222.64,208.72,222.64,216.92z"/>
<circle fill="#3C9DD8" stroke="#3C9DD8" stroke-miterlimit="10" cx="189.91" cy="225.87" r="13.18"/>
<circle fill="#030405" stroke="#030405" stroke-miterlimit="10" cx="189.91" cy="225.87" r="9.47"/>
<circle fill="#FFFFFF" stroke="#FFFFFF" stroke-miterlimit="10" cx="193.16" cy="221.29" r="3.25"/>
<path fill="none" stroke="#50849E" stroke-miterlimit="10" d="M222.65,185.15c6.62,6.37,17.8,15.75,28.99,18.97
	c3.66,1.05,6.95,2.56,9.86,4.29c1.8,1.07,3.46,2.23,4.98,3.41"/>
<path fill="#70BBE9" stroke="#50849E" stroke-miterlimit="10" d="M269.59,198.55c-0.16,4.63-1.27,8.99-3.11,12.87
	c-1.52-1.18-3.18-2.34-4.98-3.41c-2.91-1.73-6.2-3.24-9.86-4.29c-11.19-3.22-22.37-12.6-28.99-18.97c-2.11-2.01-3.75-3.73-4.79-4.85
	c5.38-8.21,14.36-13.45,24.34-13.09c7.71,0.27,14.58,3.82,19.52,9.38c2.54,2.85,4.56,6.22,5.92,9.95
	C269.04,189.96,269.74,194.16,269.59,198.55z"/>
<path fill="#FFFFFF" stroke="#FFFFFF" stroke-miterlimit="10" d="M269.47,198.95c-0.16,4.6-1.26,8.94-3.08,12.8
	c-0.01,0.02-0.02,0.05-0.03,0.07c-1.52-1.18-3.18-2.34-4.98-3.41c-1.27-0.76-2.61-1.47-4.03-2.12c-1.42-0.65-2.91-1.25-4.47-1.76
	c-0.45-0.14-0.9-0.28-1.36-0.41c-4.68-1.35-9.36-3.77-13.7-6.59c-1.25-0.83-2.48-1.68-3.67-2.54c-4.49-3.28-8.47-6.82-11.51-9.73
	c0.01-0.03,0.02-0.06,0.03-0.09c3.24-8.73,11.93-14.97,22.13-14.97c6.58,0,12.54,2.6,16.8,6.79c1.23,1.21,2.32,2.54,3.23,3.98
	c0.07,0.09,0.13,0.18,0.17,0.27c0.52,0.82,0.98,1.68,1.38,2.57c0.08,0.16,0.15,0.32,0.22,0.49c0.34,0.73,0.64,1.48,0.92,2.24
	C268.92,190.36,269.62,194.56,269.47,198.95z"/>
<path fill="#3A9BD6" stroke="#3A9BD6" stroke-miterlimit="10" d="M258.99,199.99c0,2.27-0.59,4.41-1.62,6.26
	c-0.01,0.02-0.01,0.03-0.02,0.04c-1.42-0.65-2.91-1.25-4.47-1.76c-0.45-0.14-0.9-0.28-1.36-0.41c-4.68-1.35-9.36-3.77-13.7-6.59
	c-1.25-0.83-2.48-1.68-3.67-2.54c0.01-0.03,0.02-0.06,0.03-0.08c1.97-4.61,6.55-7.84,11.88-7.84
	C253.2,187.07,258.99,192.85,258.99,199.99z"/>
<path fill="#030405" stroke="#030405" stroke-miterlimit="10" d="M254.54,199.49c0,1.87-0.61,3.61-1.64,5.01
	c-0.01,0.01-0.01,0.02-0.02,0.03c-0.45-0.14-0.9-0.28-1.36-0.41c-4.68-1.35-9.36-3.77-13.7-6.59c0-0.03,0.01-0.05,0.02-0.08
	c0.91-3.7,4.24-6.44,8.22-6.44C250.75,191.01,254.54,194.8,254.54,199.49z"/>
<circle fill="#FFFFFF" stroke="#FFFFFF" stroke-miterlimit="10" cx="248.98" cy="195.57" r="2.91"/>
<path fill="#350F10" d="M215.34,270.78c0,0,8.46,8.82,17.1,10.44s14.76,1.8,14.76,1.8s9.36,1.98,14.58-17.28L215.34,270.78z"/>
<path fill="#F4A2A4" d="M246.65,283.34c0,0,1.56-5.84-9.48-11.29c0,0-19.32-0.53-22.02-1.49c-2.7-0.96,9.17,9.02,11.1,9.01
	C228.17,279.56,234.65,284.36,246.65,283.34z"/>
<path fill="#FFFFFF" stroke="#FFFFFF" stroke-miterlimit="10" d="M265.02,259.08c0,0-15.48,12.78-56.52,3.24c0,0,3.78,6.66,7.2,7.92
	C219.12,271.5,266.1,276,265.02,259.08z"/>
<path fill="#6FBBE9" stroke="#51849E" stroke-miterlimit="10" d="M266.39,211.75c0,0,31.8,21.15,0,45.89"/>
<path fill="#6FBBE9" stroke="#51849E" stroke-miterlimit="10" d="M114,91.5c0,0-0.18,4.32,4.14,5.58"/>
<path fill="#6FBBE9" stroke="#51849E" stroke-miterlimit="10" d="M121.74,81.96c0,0,0.36,6.3,4.14,6.48"/>
<path fill="#6FBBE9" stroke="#51849E" stroke-miterlimit="10" d="M132.9,73.14c0,0-1.98,6.3,2.34,8.1"/>
<path fill="#6FBBE9" stroke="#51849E" stroke-miterlimit="10" d="M143.52,67.02c0,0-1.8,6.84,3.06,9"/>
<path fill="#6FBBE9" stroke="#51849E" stroke-miterlimit="10" d="M160.26,59.1c0,0-3.24,8.1,1.26,10.98"/>
<path fill="#6FBBE9" stroke="#51849E" stroke-miterlimit="10" d="M175.74,52.98c0,0-3.96,9.72,3.6,12.96"/>
<path fill="#6FBBE9" stroke="#51849E" stroke-miterlimit="10" d="M189.78,46.14c0,0-2.52,10.8,7.38,14.04"/>
<path fill="#6FBBE9" stroke="#51849E" stroke-miterlimit="10" d="M202.2,35.7c0,0-1.62,15.12,9.9,12.24"/>
<path fill="#6FBBE9" stroke="#51849E" stroke-miterlimit="10" d="M190.71,83.88c0,0-1.28,4.15,2.61,6"/>
<path fill="#6FBBE9" stroke="#51849E" stroke-miterlimit="10" d="M202.12,81.96c0,0-1.28,3.36,0,6.48"/>
<path fill="#6FBBE9" stroke="#51849E" stroke-miterlimit="10" d="M216.49,80.77c0,0-5.55,2.66-2.77,8.39"/>
<path fill="#6FBBE9" stroke="#51849E" stroke-miterlimit="10" d="M228.38,81.72c0,0-6.3,4.16-1.69,9.48"/>
<path fill="#6FBBE9" stroke="#51849E" stroke-miterlimit="10" d="M241.36,84.48c0,0-4.99,5.19-1.1,10.92"/>
<path fill="#6FBBE9" stroke="#51849E" stroke-miterlimit="10" d="M257,86.17c0,0-5.84,4.68-2.12,12.6"/>
<path fill="#6FBBE9" stroke="#51849E" stroke-miterlimit="10" d="M275.88,83.88c0,0-9.69,8.66,0.93,17.19"/>
<path fill="#6FBBE9" stroke="#51849E" stroke-miterlimit="10" d="M290.94,79.56c0,0-5.99,12.64,5.99,16.17"/>
<line fill="#70BBE9" stroke="#50849E" stroke-miterlimit="10" x1="222.36" y1="420" x2="188.2" y2="424.44"/>
<path fill="none" stroke="#50849E" stroke-miterlimit="10" d="M348.9,441.6c0,0-5.22-4.5-8.82-3.6c0,0-8.82-9.9-31.32-8.1"/>
<path fill="none" stroke="#50849E" stroke-miterlimit="10" d="M348.9,432.78c0,0-3.49-1.98-6.44-1.98c0,0-10.67-12.96-36.22-8.64"/>
<path fill="none" stroke="#50849E" stroke-miterlimit="10" d="M383.1,257.64c0,0-13.14,8.1-2.88,17.82c0,0-8.82,9.54,1.98,15.84
	c0,0-11.52,11.7,3.24,17.28c0,0,7.92,2.16,10.08-0.9"/>
<path fill="none" stroke="#50849E" stroke-miterlimit="10" d="M380.22,275.46c0,0,9.72-9.18,25.38-4.68"/>
<path fill="none" stroke="#50849E" stroke-miterlimit="10" d="M382.2,291.3c0,0,8.28-7.56,21.6-2.34"/>
<path fill="none" stroke="#50849E" stroke-miterlimit="10" d="M192.36,302.52c0,0,13.02,4.32,17.55-0.96"/>
<path fill="none" stroke="#50849E" stroke-miterlimit="10" d="M189.91,309.32c0,0,8.93,0.16,16.85,6.4s9.12-5.28,9.12-5.28"/>
<path fill="none" stroke="#50849E" stroke-miterlimit="10" d="M184.44,380.04c0,0,12-34.32,57.84-24.48"/>
<path fill="none" stroke="#50849E" stroke-miterlimit="10" d="M191.16,408.6c0,0,34.08-45.6,45.12-16.56"/>
</svg>
