<svg xmlns="http://www.w3.org/2000/svg" viewBox="0 0 249.71 554"><defs><style>.cls-1{fill:#fbdedd;stroke:#f5959a;stroke-width:1px;}.cls-1,.cls-2,.cls-6{stroke-miterlimit:10;}.cls-12,.cls-2{fill:#689ba9;}.cls-2{stroke:#547b85;}.cls-3{fill:#a6c7e9;}.cls-4{fill:#f6f18e;}.cls-5{fill:#d0ab91;}.cls-6{fill:none;stroke:silver;}.cls-7{fill:silver;}.cls-8{fill:#b6b3d9;}.cls-9{fill:#cdb3d5;}.cls-10{fill:#efec8c;}.cls-11{fill:#8abae0;}.cls-13{fill:#abdcd2;}.cls-14{fill:#91d1b6;}.cls-15{fill:#88bdab;}.cls-16{fill:#b9ddad;}.cls-17{fill:#bacab2;}.cls-18{fill:#fcbe7c;}.cls-19{fill:#f2a795;}.cls-20{fill:#f8a687;}.cls-21{fill:#f8b2bb;}.cls-22{fill:#eff1b0;}.cls-23{fill:#f59599;}</style></defs><g id="Layer_2" data-name="Layer 2"><rect class="cls-1" x="10.21" y="460" width="169.9" height="93.5"/><polygon class="cls-2" points="169.71 413 18.71 413 0.71 463 191.71 463 169.71 413"/><polygon class="cls-3" points="72.71 435 64.25 435 51.18 418 36.93 435 27.71 435 51.18 407 72.71 435"/><rect class="cls-4" x="91.03" y="455" width="88.03" height="98"/><polygon class="cls-3" points="187.71 460 179.06 460 134.18 377 91.03 460 82.71 460 134.18 361 187.71 460"/><polygon class="cls-4" points="179.06 460 91.03 460 134.18 377 179.06 460"/><rect class="cls-5" x="77.71" y="386" width="18" height="35"/><rect class="cls-4" x="34.71" y="435" width="31" height="19"/><polygon class="cls-4" points="64.25 435 36.93 435 51.18 418 64.25 435"/><line class="cls-6" x1="81.21" y1="388.5" x2="57.21" y2="261.5"/><line class="cls-6" x1="84.21" y1="387.5" x2="68.21" y2="271.5"/><line class="cls-6" x1="92.21" y1="388.5" x2="142.21" y2="283.5"/><line class="cls-6" x1="86.21" y1="387.5" x2="84.21" y2="272.5"/><line class="cls-6" x1="88.21" y1="388.5" x2="97.21" y2="290.5"/><line class="cls-6" x1="90.21" y1="388.5" x2="113.21" y2="274.5"/><line class="cls-6" x1="92.21" y1="388.5" x2="117.21" y2="290.5"/></g><g id="Layer_3" data-name="Layer 3"><circle class="cls-7" cx="66.21" cy="246.5" r="12"/><circle class="cls-8" cx="85.71" cy="262" r="12"/><circle class="cls-8" cx="193.71" cy="195" r="12"/><circle class="cls-8" cx="36.71" cy="210" r="12"/><circle class="cls-8" cx="160.71" cy="150" r="12"/><circle class="cls-8" cx="100.71" cy="96" r="12"/><circle class="cls-8" cx="152.71" cy="110" r="12"/><circle class="cls-8" cx="36.71" cy="159" r="12"/><circle class="cls-8" cx="134.71" cy="81" r="12"/><circle class="cls-8" cx="225.71" cy="183" r="12"/><circle class="cls-8" cx="200.71" cy="57" r="12"/><circle class="cls-8" cx="219.71" cy="145" r="12"/><circle class="cls-8" cx="82.71" cy="155" r="12"/><circle class="cls-8" cx="127.71" cy="48" r="12"/><circle class="cls-9" cx="44.71" cy="243" r="12"/><circle class="cls-9" cx="21.71" cy="119" r="12"/><circle class="cls-9" cx="76.71" cy="212" r="12"/><circle class="cls-10" cx="39.71" cy="226" r="12"/><circle class="cls-10" cx="46.71" cy="143" r="12"/><circle class="cls-10" cx="88.71" cy="137" r="12"/><circle class="cls-10" cx="147.71" cy="47" r="12"/><circle class="cls-10" cx="90.71" cy="26" r="12"/><circle class="cls-10" cx="112.71" cy="38" r="12"/><circle class="cls-10" cx="20.71" cy="94" r="12"/><circle class="cls-10" cx="137.71" cy="207" r="12"/><circle class="cls-10" cx="178.71" cy="133" r="12"/><circle class="cls-3" cx="48.71" cy="220" r="12"/><circle class="cls-3" cx="209.71" cy="109" r="12"/><circle class="cls-3" cx="187.71" cy="137" r="12"/><circle class="cls-11" cx="70.71" cy="238" r="12"/><circle class="cls-11" cx="16.71" cy="135" r="12"/><circle class="cls-11" cx="42.71" cy="186" r="12"/><circle class="cls-11" cx="166.71" cy="81" r="12"/><circle class="cls-11" cx="51.71" cy="97" r="12"/><circle class="cls-11" cx="80.71" cy="57" r="12"/><circle class="cls-12" cx="160.71" cy="259" r="12"/><circle class="cls-12" cx="101.71" cy="116" r="12"/><circle class="cls-12" cx="60.71" cy="48" r="12"/><circle class="cls-12" cx="51.71" cy="123" r="12"/><circle class="cls-12" cx="219.71" cy="162" r="12"/><circle class="cls-12" cx="156.71" cy="12" r="12"/><circle class="cls-12" cx="109.71" cy="12" r="12"/><circle class="cls-12" cx="34.71" cy="75" r="12"/><circle class="cls-12" cx="187.71" cy="213" r="12"/><circle class="cls-12" cx="90.71" cy="201" r="12"/><circle class="cls-12" cx="97.71" cy="155" r="12"/><circle class="cls-12" cx="170.71" cy="36" r="12"/><circle class="cls-12" cx="86.71" cy="41" r="12"/><circle class="cls-12" cx="137.71" cy="153" r="12"/><circle class="cls-13" cx="143.71" cy="262" r="12"/><circle class="cls-13" cx="177.71" cy="189" r="12"/><circle class="cls-13" cx="214.71" cy="79" r="12"/><circle class="cls-13" cx="141.71" cy="219" r="12"/><circle class="cls-13" cx="131.71" cy="132" r="12"/><circle class="cls-13" cx="90.71" cy="174" r="12"/><circle class="cls-13" cx="103.71" cy="43" r="12"/><circle class="cls-13" cx="175.71" cy="94" r="12"/><circle class="cls-13" cx="82.71" cy="103" r="12"/><circle class="cls-13" cx="32.71" cy="176.5" r="12"/><circle class="cls-14" cx="134.71" cy="250" r="12"/><circle class="cls-14" cx="172.71" cy="211" r="12"/><circle class="cls-14" cx="179.71" cy="155" r="12"/><circle class="cls-14" cx="154.71" cy="91" r="12"/><circle class="cls-15" cx="109.71" cy="250" r="12"/><circle class="cls-15" cx="113.71" cy="208" r="12"/><circle class="cls-15" cx="213.71" cy="125" r="12"/><circle class="cls-15" cx="197.71" cy="149" r="12"/><circle class="cls-16" cx="89.71" cy="243" r="12"/><circle class="cls-16" cx="146.71" cy="163" r="12"/><circle class="cls-16" cx="113.71" cy="94" r="12"/><circle class="cls-16" cx="67.71" cy="193" r="12"/><circle class="cls-16" cx="175.71" cy="57" r="12"/><circle class="cls-17" cx="63.71" cy="220" r="12"/><circle class="cls-17" cx="67.71" cy="145" r="12"/><circle class="cls-17" cx="207.71" cy="162" r="12"/><circle class="cls-17" cx="63.71" cy="91" r="12"/><circle class="cls-17" cx="84.71" cy="17" r="12"/><circle class="cls-17" cx="118.71" cy="72" r="12"/><circle class="cls-18" cx="60.71" cy="255" r="12"/><circle class="cls-18" cx="36.71" cy="133" r="12"/><circle class="cls-18" cx="52.71" cy="45" r="12"/><circle class="cls-18" cx="153.71" cy="186" r="12"/><circle class="cls-18" cx="56.71" cy="210" r="12"/><circle class="cls-18" cx="127.71" cy="173" r="12"/><circle class="cls-18" cx="71.71" cy="79" r="12"/><circle class="cls-18" cx="106.71" cy="60" r="12"/><circle class="cls-18" cx="32.71" cy="186" r="12"/><circle class="cls-18" cx="99.71" cy="216" r="12"/><circle class="cls-18" cx="173.71" cy="171" r="12"/><circle class="cls-18" cx="153.71" cy="57" r="12"/><circle class="cls-18" cx="199.71" cy="186" r="12"/><circle class="cls-18" cx="182.71" cy="39" r="12"/><circle class="cls-18" cx="116.71" cy="145" r="12"/><circle class="cls-18" cx="125.71" cy="17" r="12"/><circle class="cls-18" cx="36.71" cy="91" r="12"/><circle class="cls-19" cx="70.71" cy="264" r="12"/><circle class="cls-19" cx="75.71" cy="193" r="12"/><circle class="cls-19" cx="113.71" cy="232" r="12"/><circle class="cls-20" cx="113.71" cy="267" r="12"/><circle class="cls-20" cx="185.71" cy="231" r="12"/><circle class="cls-20" cx="115.71" cy="111" r="12"/><circle class="cls-20" cx="72.71" cy="118" r="12"/><circle class="cls-20" cx="65.71" cy="63" r="12"/><circle class="cls-21" cx="131.71" cy="264" r="12"/><circle class="cls-21" cx="106.71" cy="177" r="12"/><circle class="cls-21" cx="84.71" cy="91" r="12"/><circle class="cls-21" cx="223.71" cy="99" r="12"/><circle class="cls-21" cx="156.71" cy="207" r="12"/><circle class="cls-21" cx="127.71" cy="103" r="12"/><circle class="cls-21" cx="120.71" cy="126" r="12"/><circle class="cls-21" cx="168.71" cy="70" r="12"/><circle class="cls-21" cx="193.71" cy="173" r="12"/><circle class="cls-21" cx="149.71" cy="29" r="12"/><circle class="cls-21" cx="195.71" cy="33" r="12"/><circle class="cls-5" cx="119.71" cy="284" r="12"/><circle class="cls-5" cx="41.71" cy="109" r="12"/><circle class="cls-5" cx="96.71" cy="189" r="12"/><circle class="cls-5" cx="187.71" cy="97" r="12"/><circle class="cls-5" cx="231.71" cy="128" r="12"/><circle class="cls-5" cx="137.71" cy="115" r="12"/><circle class="cls-5" cx="193.71" cy="48" r="12"/><circle class="cls-5" cx="102.71" cy="133" r="12"/><circle class="cls-5" cx="73.71" cy="27" r="12"/><circle class="cls-5" cx="165.71" cy="222" r="12"/><circle class="cls-5" cx="137.71" cy="140" r="12"/><circle class="cls-5" cx="134.71" cy="62" r="12"/><circle class="cls-5" cx="129.71" cy="231" r="12"/><circle class="cls-5" cx="51.71" cy="164" r="12"/><circle class="cls-5" cx="132.71" cy="36" r="12"/><circle class="cls-5" cx="92.71" cy="77" r="12"/><circle class="cls-22" cx="97.71" cy="281" r="12"/><circle class="cls-22" cx="113.71" cy="192" r="12"/><circle class="cls-22" cx="177.71" cy="240" r="12"/><circle class="cls-22" cx="226.71" cy="111" r="12"/><circle class="cls-22" cx="184.71" cy="75" r="12"/><circle class="cls-22" cx="207.71" cy="137" r="12"/><circle class="cls-22" cx="134.71" cy="99" r="12"/><circle class="cls-22" cx="44.71" cy="53" r="12"/><circle class="cls-22" cx="137.71" cy="12" r="12"/><circle class="cls-22" cx="58.71" cy="113" r="12"/><circle class="cls-22" cx="168.71" cy="116" r="12"/><circle class="cls-22" cx="153.71" cy="77" r="12"/><circle class="cls-22" cx="87.71" cy="224" r="12"/><circle class="cls-22" cx="72.71" cy="177" r="12"/><circle class="cls-22" cx="109.71" cy="161" r="12"/><circle class="cls-22" cx="48.71" cy="75" r="12"/><circle class="cls-22" cx="160.71" cy="167" r="12"/><circle class="cls-22" cx="215.71" cy="183" r="12"/><circle class="cls-22" cx="215.71" cy="94" r="12"/><circle class="cls-23" cx="143.71" cy="280" r="12"/><circle class="cls-23" cx="153.71" cy="238" r="12"/><circle class="cls-23" cx="205.71" cy="211" r="12"/><circle class="cls-23" cx="237.71" cy="143" r="12"/><circle class="cls-23" cx="215.71" cy="66" r="12"/><circle class="cls-23" cx="170.71" cy="26" r="12"/><circle class="cls-23" cx="67.71" cy="169" r="12"/><circle class="cls-23" cx="131.71" cy="192" r="12"/><circle class="cls-23" cx="193.71" cy="85" r="12"/><circle class="cls-23" cx="151.71" cy="129" r="12"/><circle class="cls-23" cx="187.71" cy="119" r="12"/><circle class="cls-23" cx="162.71" cy="101" r="12"/><circle class="cls-23" cx="39.71" cy="66" r="12"/><circle class="cls-23" cx="25.71" cy="149" r="12"/><circle class="cls-23" cx="104.71" cy="69" r="12"/></g></svg>