<?xml version="1.0" encoding="utf-8"?>
<!-- Generator: Adobe Illustrator 25.2.1, SVG Export Plug-In . SVG Version: 6.00 Build 0)  -->
<svg version="1.1" id="Rat" xmlns="http://www.w3.org/2000/svg" xmlns:xlink="http://www.w3.org/1999/xlink" x="0px" y="0px"
	 viewBox="0 0 500 500" enable-background="new 0 0 500 500" xml:space="preserve">
<path id="spoon" fill="#8C6239" stroke="#63442B" stroke-miterlimit="10" d="M332.76,464.52c-10.8,3.36-16.8-8.64-16.8-8.64
	l-60.72-283.92c0,0-4.56-10.56-9.12-13.68s-22.64-16.57-27.52-30.48c-5.98-9.85-9.6-22.72-9.6-36.8c0-30.93,17.46-56,39-56
	s39,25.07,39,56c0,12.39-2.8,23.84-7.55,33.12c-0.01,0.02-0.02,0.04-0.03,0.08c-0.79,1.94-10.16,25.41-7.86,41.04
	c2.4,16.32,71.76,288.48,71.76,288.48S343.56,461.16,332.76,464.52z"/>
<path fill="#F28E78" stroke="#D87E6F" stroke-miterlimit="10" d="M280.57,287.17c0,0,3.71,5.75,15.95-8.11h-6.66l-0.18-1.8
	c0,0-7.86,1.2-5.82-3.3c2.04-4.5,10.68-7.32,10.68-7.32s-11.7,2.28-10.38-1.38s7.14-5.28,7.14-5.28s5.64-1.56,7.26,4.5
	s2.94,11.28,2.94,11.28s3.24,15.24,1.56,20.7c-1.68,5.46-9.17,8.22-9.17,8.22l-14.83,2.4l-1.38-17.82L280.57,287.17z"/>
<path fill="#F28E78" stroke="#D87E6F" stroke-miterlimit="10" d="M191.4,446.52c0,0,14.04,14.52,19.44,12c0,0,9.18,2.75,12.24,0.29
	c3.06-2.45,4.32-3.95,0-12.29c-4.32-8.34-27.36-8.16-27.36-8.16L191.4,446.52z"/>
<path fill="#F28E78" stroke="#D87E6F" stroke-miterlimit="10" d="M243.48,443.47c0,0,28.88,4.97,32.68,0.83
	c3.8-4.14-3.88-7.95-3.88-7.95l-17.7-1.77L243.48,443.47z"/>
<path fill="#F28E78" stroke="#D87E6F" stroke-miterlimit="10" d="M164.52,421.52c-0.04-0.23-63.72,3.46-73.2,13.06
	c-9.48,9.6,33.9,19.62,33.9,19.62s-39.66-3.84-37.74-19.62c1.92-15.78,75.48-17.34,75.48-17.34l15.48-13.26l-8.64,16.2
	L164.52,421.52z"/>
<path id="body" fill="#567C8E" stroke="#45616D" stroke-miterlimit="10" d="M222.09,218.49c0,0-10.8-35.28,14.76-41.04
	c25.56-5.76,33.48,9,33.48,9s19.84-6.84,34.4,0s6.64,33.84,6.64,33.84s-6.48,20.16-27.36,19.8s-29.64,0-29.64,0
	s9.78,16.08,23.28,15.24c0,0,4.8-0.3,7.2-2.7c0,0,0.9,3.72-1.74,6.3c-2.64,2.58-2.7,40.2-2.7,40.2s6.9-6.6,12.18-1.68
	c5.28,4.92-2.16,12.66-2.16,12.66s-4.26,4.5-14.7,25.56c0,0-4.68,19.62-3.06,29.34c1.62,9.72,7.74,58.68,2.52,68.76
	c-5.22,10.08-77.22,15.3-90.72,11.52s-19.08-19.26-19.08-19.26s-14.22-58.5,26.1-93.06c0,0,25.56-22.84,32.04-82.88
	c0,0,4.14-23.5-19.08-25.39C204.45,224.7,224.13,223.17,222.09,218.49z"/>
<path id="ear" fill="#F28E78" stroke="#D87E6F" stroke-miterlimit="10" d="M217.68,257.52c-24.84,4.02-30.14-4.17-30.14-4.17
	c-0.8-0.54-1.55-1.12-2.24-1.74c0,0-0.01-0.01-0.02-0.02c-0.21-0.22-1.9-2.08-3.7-4.72c0,0-0.01-0.01-0.01-0.02
	c-3.11-4.59-6.51-11.56-2.95-16.57c5.76-8.1,21.6-6.3,21.6-6.3l-0.05,0.07c0.62-0.05,1.25-0.07,1.88-0.07
	c9.18,0,17.05,4.29,20.35,10.38c0.57,1.51,1.07,3,1.5,4.44C226.75,248.42,226.12,256.15,217.68,257.52z"/>
<ellipse fill="#F28E78" stroke="#D87E6F" stroke-miterlimit="10" cx="308.8" cy="197.07" rx="15.7" ry="12.87"/>
<path fill="#D87E6F" stroke="#D87E6F" stroke-miterlimit="10" d="M256.12,199.28c-0.04,0.41-0.08,0.81-0.13,1.2
	c-0.6,4.43-2.27,7.93-4.4,10.69c-1.29,1.65-2.73,3.04-4.21,4.19c-4.03,3.16-8.3,4.6-10.1,5.11c-0.56,0.15-0.88,0.22-0.88,0.22
	c-5.26-2.41-8.91-7.73-8.91-13.9c0-8.45,6.85-15.3,15.3-15.3C248.51,191.49,253.5,194.63,256.12,199.28z"/>
<path fill="#FFFFFF" stroke="#FDFDFD" stroke-miterlimit="10" d="M255.69,199.83c-2.47-4.19-7.04-7.02-12.27-7.02
	c-7.87,0-14.26,6.4-14.26,14.28c0,5.56,3.18,10.39,7.82,12.73c0.16,0.08,0.32,0.16,0.49,0.24c0,0,16.96-3.55,18.37-19.98
	C255.79,200,255.74,199.91,255.69,199.83z"/>
<path fill="#010202" stroke="#030405" stroke-miterlimit="10" d="M252.15,209.07c0,0.66-0.1,1.29-0.29,1.89
	c-1.29,1.65-2.73,3.04-4.21,4.19c-0.59,0.18-1.21,0.28-1.86,0.28c-3.51,0-6.36-2.85-6.36-6.36s2.85-6.36,6.36-6.36
	S252.15,205.56,252.15,209.07z"/>
<circle fill="#FFFFFF" stroke="#FDFDFD" stroke-miterlimit="10" cx="245.79" cy="206.43" r="1.53"/>
<path fill="#D87E6F" stroke="#D87E6F" stroke-miterlimit="10" d="M257.15,191.82c-4.76-0.8-9.83-2.46-9.83-2.46s-6.72-4.68,0-8.64
	c1.81-1.06,4.14-1.36,6.59-1.21c6.66,0.38,14.17,3.97,14.17,3.97s1.92,0.6,3,3.12c0,0,0,0-0.01,0.01c-0.19,0.28-3.26,4.7-7.91,5.51
	c-0.35,0.06-0.74,0.1-1.15,0.12c-0.18,0.01-0.36,0.01-0.54,0.01c0.05,0,0.09-0.01,0.13-0.03"/>
<path fill="#FDFDFD" stroke="#FDFDFD" stroke-miterlimit="10" d="M271.08,186.6c0,0,0,0-0.01,0.01c-0.16,0.28-2.89,4.7-7.03,5.51
	c-0.58,0.12-1.27,0.15-2.03,0.12c-0.13-0.01-0.27-0.01-0.41-0.02c-1.65-0.12-3.57-0.5-5.36-0.95c-3.35-0.84-6.27-1.91-6.27-1.91
	s-5.97-4.68,0-8.64c1.13-0.74,2.48-1.11,3.94-1.21c6.29-0.46,14.5,3.97,14.5,3.97S270.12,184.08,271.08,186.6z"/>
<path fill="#030405" stroke="#030405" stroke-miterlimit="10" d="M264.99,188.76c0,1.62-1.46,3-3.48,3.49
	c-1.65-0.12-3.57-0.5-5.36-0.95c-0.87-0.66-1.42-1.55-1.42-2.54c0-2.04,2.3-3.69,5.13-3.69S264.99,186.72,264.99,188.76z"/>
<ellipse fill="#FDFDFD" stroke="#FDFDFD" stroke-miterlimit="10" cx="259.29" cy="188.91" rx="1.59" ry="1.5"/>
<path fill="#030405" stroke="#030405" stroke-miterlimit="10" d="M255.4,240.27c0,0,17.45,16.84,23.4,12.83c0,0,4.85,1.38,6.96-7.03
	C285.76,246.08,280.34,245.96,255.4,240.27z"/>
<path fill="#FFFFFF" stroke="#FDFDFD" stroke-miterlimit="10" d="M255.84,239.73c0,0,15.65,7.6,23.21,6.72s7.91-4.28,7.91-4.28
	l0.46-2.44H255.84z"/>
<path fill="#F28E78" stroke="#D87E6F" stroke-miterlimit="10" d="M253.68,239.73c0,0,26.01,21.83,33.6,3.78c0,0,3.73,4.39-2.3,10.35
	s-20.68-2.61-20.68-2.61S254.2,241.83,253.68,239.73z"/>
</svg>
